<svg xmlns="http://www.w3.org/2000/svg" width="503" height="337"><path d="M0 0h503v337H0V0Z" fill="#FEFDFD"/><path d="M0 0h503v337H0V0Zm478.5 18.188a9245.93 9245.93 0 0 1-4.355 2.207l-2.459 1.248c-2.948 1.49-5.904 2.962-8.862 4.431-10.676 5.307-21.316 10.66-31.843 16.258-6.866 3.64-13.817 7.1-20.777 10.556-6.865 3.418-13.66 6.954-20.433 10.549-5.624 2.978-11.294 5.845-16.997 8.665-4.454 2.212-8.84 4.528-13.212 6.898-6.114 3.311-12.341 6.322-18.665 9.21-3.338 1.536-6.474 3.128-9.584 5.087-3.767 1.936-4.413 1.847-8.313.703a97.342 97.342 0 0 1-5.465-2.66l-3.153-1.644-3.32-1.758-3.406-1.788a553.504 553.504 0 0 1-20.691-11.466c-3.804-2.16-7.71-4.067-11.637-5.989C271.157 66.57 267.082 64.291 263 62c-4.951-2.778-9.898-5.506-15-8-5.02-2.454-9.882-5.138-14.75-7.875a390.029 390.029 0 0 0-19.491-10.226C209.406 33.749 205.198 31.44 201 29a326.608 326.608 0 0 0-15.5-8.438l-1.996-1.037C179.669 17.6 176.314 16.114 172 16a50.639 50.639 0 0 0-7 3.188l-2.078 1.087A543.256 543.256 0 0 0 156 24l-2.488 1.352c-3.585 1.95-7.167 3.905-10.742 5.871-7.038 3.863-14.137 7.594-21.27 11.277a1153.249 1153.249 0 0 0-26.332 14.05C88.656 60.122 82.094 63.584 75.5 67a1180.058 1180.058 0 0 0-25.325 13.546c-7.526 4.126-15.117 8.121-22.74 12.066l-2.517 1.306-2.226 1.15c-1.67.818-1.67.818-2.692 1.932a102.613 102.613 0 0 0-.281 5.415l-.112 3.58-.107 3.985-.122 4.196c-.111 3.856-.214 7.712-.314 11.568-.064 2.45-.13 4.898-.195 7.348C17.164 197.372 16.743 261.699 17 326c1.59-.785 3.178-1.573 4.766-2.361l2.681-1.329c3.416-1.753 6.639-3.734 9.866-5.81l4.132-2.617 2.208-1.402c4.327-2.73 8.682-5.416 13.035-8.106l2.743-1.697c5.697-3.524 11.4-7.038 17.108-10.545 2.707-1.666 5.409-3.34 8.11-5.016a3227.8 3227.8 0 0 1 27.976-17.18 1115.165 1115.165 0 0 0 20.563-12.75c12.473-7.94 25.151-15.55 37.812-23.187l2.749-1.731C173 231 173 231 174.965 231.105c2.698 1.187 5.101 2.636 7.597 4.208l1.692 1.057A1174.67 1174.67 0 0 1 190 240l2.14 1.359 2.235 1.418 4.688 2.973 2.427 1.54c6.684 4.224 13.45 8.302 20.241 12.352 6.414 3.83 12.76 7.758 19.085 11.733 11.341 7.127 22.749 14.15 34.184 21.125a4272.525 4272.525 0 0 1 19.25 11.813 666.13 666.13 0 0 1 16.797 10.625l3.015 1.96a664.894 664.894 0 0 1 5.744 3.785l2.632 1.712 2.308 1.526c2.683 1.284 4.31 1.436 7.254 1.079 2.027-.855 2.027-.855 3.906-2.168l2.22-1.436 2.374-1.584 5.152-3.34 2.683-1.749c4.205-2.719 8.465-5.347 12.728-7.973l2.605-1.61c8.216-5.076 16.444-10.135 24.671-15.193a6099.969 6099.969 0 0 0 20.349-12.572A2750.055 2750.055 0 0 1 430.5 264c5.6-3.403 11.199-6.808 16.777-10.246l2.442-1.498a212.141 212.141 0 0 0 5.093-3.269c4.688-3.064 9.077-5.404 14.387-7.212 7.035-2.73 13.859-6.036 17.801-12.775 4.925-13.682 2.855-30.483 2.433-44.734-.15-5.957-.164-11.914-.192-17.873-.075-11.264-.271-22.523-.513-33.785-.269-12.829-.4-25.658-.52-38.489-.25-26.376-.672-52.747-1.208-79.119-3.18 0-5.723 1.763-8.5 3.188Z" fill="#FEFDFD"/><path d="M483 21a5995.103 5995.103 0 0 1 1.45 79.696c.145 12.34.341 24.673.662 37.009.28 10.758.46 21.513.522 32.275.037 5.695.122 11.38.326 17.072 1.233 35.605 1.233 35.605-5.643 43.454-6.208 5.879-13.83 9.077-21.743 12.033-5.74 2.347-10.738 5.73-15.887 9.149a1271.832 1271.832 0 0 1-5.894 3.699l-2.905 1.818c-4.774 2.967-9.58 5.882-14.388 8.795a1781.808 1781.808 0 0 0-23.5 14.5 1989.916 1989.916 0 0 1-26.17 16.132 1984.838 1984.838 0 0 0-15.947 9.766l-1.806 1.118c-3.53 2.183-3.53 2.183-7.056 4.372a2267.24 2267.24 0 0 1-4.85 3.007l-2.809 1.745C335 318 335 318 332 319c-1.211-12.145-1.312-24.306-1.5-36.5l-.06-3.618c-.427-26.238-.7-52.479-.969-78.719l-.1-9.68c-.32-30.495-.43-60.986-.371-91.483l7.234-3.864 2.06-1.1a489.41 489.41 0 0 1 13.394-6.911l4.023-2L360 83c10.544-5.226 21.04-10.517 31.433-16.039C398.235 63.365 405.11 59.925 412 56.5c7.38-3.668 14.73-7.37 22-11.25 13.427-7.16 27.103-13.845 40.726-20.621a516.05 516.05 0 0 0 5.659-2.852C482 21 482 21 483 21Z" fill="#FEFDFD"/><path d="M176 21c4.147 1.765 8.224 3.555 12.223 5.637l2.859 1.487 2.98 1.564 3.104 1.622a509.85 509.85 0 0 1 19.518 10.83c4.373 2.452 8.853 4.652 13.352 6.859a214.775 214.775 0 0 1 13.089 7.063A211.16 211.16 0 0 0 256.5 63.25c6.03 2.965 11.925 6.135 17.813 9.375a978.484 978.484 0 0 0 21.49 11.496c2.158 1.12 4.311 2.25 6.458 3.391 4.328 2.289 8.542 4.516 13.173 6.125 3.789 1.448 5.81 2.392 8.566 5.363.775 3.143.766 6.238.78 9.464l.07 2.825c.047 1.947.083 3.895.11 5.842.037 2.67.105 5.338.188 8.007.157 5.148.271 10.295.38 15.444l.061 2.831c.447 20.483.727 40.967.943 61.453l.095 8.628c.387 35.17.5 70.335.373 105.506-1.578-.776-3.154-1.556-4.73-2.336l-2.66-1.314c-3.922-2.029-7.597-4.385-11.298-6.788a1025.22 1025.22 0 0 0-21.687-13.5 3387.9 3387.9 0 0 1-30.054-18.466c-15.36-9.534-30.749-19.02-46.148-28.49a22262.719 22262.719 0 0 1-16.014-9.858l-5.046-3.109-3.101-1.909-2.72-1.675c-2.487-1.612-2.487-1.612-5.163-2.64C176 227 176 227 175.385 223.413c-.021-1.532-.014-3.064.014-4.595l-.013-2.557c-.008-2.838.02-5.675.046-8.513.002-2.03.001-4.06-.002-6.09-.001-5.52.028-11.04.063-16.56.031-5.766.034-11.532.04-17.297.016-10.923.057-21.845.107-32.767.056-12.433.083-24.865.108-37.298.053-25.58.14-51.158.252-76.737Z" fill="#FEFDFE"/><path d="M487 15c.562 27.642.984 55.283 1.243 82.93.124 12.837.292 25.672.568 38.508.24 11.192.394 22.382.447 33.578.031 5.925.104 11.843.28 17.766 1.058 37.155 1.058 37.155-4.897 44.646-5.553 5.237-11.683 8.198-18.868 10.6-3.649 1.279-6.495 3.063-9.691 5.218a3679.73 3679.73 0 0 1-5.27 3.191 34024.26 34024.26 0 0 0-5.765 3.5l-2.666 1.618c-6.87 4.17-13.707 8.392-20.514 12.664-10.97 6.882-21.976 13.7-33.055 20.406-8.246 4.993-16.487 9.994-24.687 15.063l-2.5 1.542a664.197 664.197 0 0 0-13.633 8.684l-3.032 1.97a653.141 653.141 0 0 0-5.768 3.8c-.868.565-1.736 1.13-2.63 1.71l-2.308 1.527c-2.665 1.276-4.331 1.413-7.254 1.079a85.41 85.41 0 0 1-7.063-4.438c-7.862-5.276-15.892-10.237-24-15.125l-7.32-4.425-1.769-1.07c-6.32-3.826-12.58-7.747-18.835-11.68-14.442-9.053-28.998-17.918-43.562-26.771A1663.543 1663.543 0 0 1 199.5 246c-2.415-1.526-4.83-3.052-7.247-4.577a2820.53 2820.53 0 0 1-4.307-2.725 1242.79 1242.79 0 0 0-5.383-3.386l-2.997-1.886c-2.359-1.31-3.922-2.06-6.566-2.426-1.953.698-1.953.698-3.852 1.965l-2.288 1.4-2.485 1.572-2.642 1.63c-1.906 1.177-3.809 2.36-5.709 3.547a1265.869 1265.869 0 0 1-9.282 5.722c-11.68 7.149-23.304 14.382-34.906 21.655-7.761 4.857-15.571 9.63-23.399 14.378a2389.228 2389.228 0 0 0-19.062 11.693l-2.6 1.612c-3.47 2.152-6.94 4.306-10.407 6.463-9.838 6.116-19.694 12.2-29.618 18.175l-2.62 1.583-2.396 1.437-2.118 1.273C18 326 18 326 17 326c-.183-45.777.121-91.55.768-137.323.149-10.6.266-21.2.332-31.801.046-7.012.127-14.023.237-21.034.062-4.047.107-8.092.11-12.14.004-3.727.054-7.451.14-11.178a233.4 233.4 0 0 0 0-5.962c.259-8.455.259-8.455 3.59-11.65C24.734 93.35 27.232 92.138 30 91a278.972 278.972 0 0 0 3.984-2.055c1.254-.61 2.51-1.216 3.766-1.82 5.803-2.841 11.408-5.885 16.99-9.14 4.054-2.343 8.18-4.488 12.385-6.547 8.55-4.2 16.924-8.714 25.31-13.23 6.8-3.66 13.61-7.297 20.44-10.9l2.27-1.198c2.955-1.558 5.91-3.117 8.867-4.67 7.218-3.792 14.394-7.628 21.457-11.702 4.98-2.872 9.987-5.597 15.156-8.113l2.02-.996c1.783-.88 3.569-1.754 5.355-2.629l2.086-1.29c3.827-1.42 7.442.084 11.035 1.654l3.316 1.734 1.825.947a710.27 710.27 0 0 1 3.812 2c1.889.998 3.784 1.984 5.68 2.969a544.774 544.774 0 0 1 20.455 11.255A191.446 191.446 0 0 0 229 44c5.191 2.54 10.256 5.217 15.25 8.125 4.193 2.438 8.394 4.743 12.75 6.875 4.968 2.431 9.737 5.122 14.517 7.903 4.333 2.496 8.743 4.771 13.233 6.972 5.937 2.91 11.736 6.011 17.5 9.25C314.517 91.009 314.517 91.009 328 95a76.95 76.95 0 0 0 7.813-3.938c1.528-.845 3.058-1.689 4.59-2.53l2.335-1.298c3.333-1.818 6.729-3.498 10.137-5.171 5.91-2.92 11.744-5.966 17.563-9.063 5.952-3.163 11.941-6.177 18.062-9 8.523-3.936 16.8-8.29 25.08-12.709 11.544-6.158 23.133-12.207 34.856-18.017 5.1-2.534 10.191-5.086 15.284-7.634l9.132-4.566 3.15-1.575L479 18l3.26-1.692C485 15 485 15 487 15ZM162.875 25c-5.667 3.251-11.382 6.316-17.25 9.188a170.07 170.07 0 0 0-14.953 8.257c-3.397 1.977-6.895 3.7-10.422 5.43-5.797 2.844-11.4 5.878-16.978 9.133-4.18 2.419-8.436 4.617-12.772 6.742-6.409 3.145-12.684 6.495-18.938 9.938-9.203 5.065-18.486 9.958-27.823 14.772a396.777 396.777 0 0 0-5.846 3.078C35 93 35 93 31.853 94.188 28.692 95.5 26.465 96.618 24 99c-1.294 4.25-1.208 8.314-1.058 12.703.082 3.24-.038 6.465-.142 9.703-.151 5.051-.218 10.104-.3 15.156l-.06 3.454c-.443 26.069-.705 52.14-.969 78.212l-.1 9.823c-.314 30.317-.43 60.63-.371 90.949 1.286-.638 2.572-1.277 3.857-1.917l2.17-1.078a68.29 68.29 0 0 0 6.102-3.528l2.158-1.382 2.276-1.47a1075.913 1075.913 0 0 1 21.5-13.375c11.57-7.018 23.096-14.105 34.617-21.205 3.335-2.054 6.67-4.107 10.007-6.158a9056.373 9056.373 0 0 0 30-18.512c31.945-19.81 31.945-19.81 35.922-21.452 2.777-1.799 2.777-1.799 3.006-5.51.021-1.53.014-3.063-.014-4.594l.013-2.557c.008-2.838-.02-5.675-.046-8.513-.002-2.03-.001-4.06.002-6.09.001-5.52-.028-11.04-.063-16.56-.031-5.766-.034-11.532-.04-17.297-.016-10.923-.057-21.845-.107-32.767-.056-12.433-.083-24.865-.108-37.298-.053-25.58-.14-51.158-.252-76.737-3.434 0-6.217 2.307-9.125 4ZM176 21c-.468 26.65-.82 53.301-1.036 79.955a3644.758 3644.758 0 0 1-.473 37.127c-.2 10.79-.328 21.577-.373 32.368a816.296 816.296 0 0 1-.233 17.13c-1.732 21.975-1.732 21.975 4.046 42.455 4.559 4.43 9.52 6.544 15.586 8.187 3.912 1.226 7.063 3.418 10.42 5.715 1.3.824 2.604 1.644 3.91 2.458l2.025 1.272c15.204 9.526 30.514 18.886 45.797 28.285a49282.188 49282.188 0 0 1 19.556 12.032c5.555 3.418 11.11 6.838 16.662 10.262 14.06 8.673 14.06 8.673 28.175 17.254l1.841 1.115c2.387 1.679 2.387 1.679 5.097 2.385.13-36.145-.005-72.284-.406-108.427l-.091-8.49c-.22-20.503-.528-41.002-.976-61.501l-.056-2.695c-.109-5.091-.243-10.18-.4-15.27a673.603 673.603 0 0 1-.158-8.41l-.146-5.714-.017-2.68c-.139-4.253-.232-6.182-3.003-9.556-2.889-1.967-5.65-3.13-8.935-4.32a2655.538 2655.538 0 0 1-6.91-3.03l-3.524-1.454c-5.032-2.164-9.742-4.818-14.503-7.516A974.895 974.895 0 0 0 265.5 68c-8.519-4.415-16.96-8.952-25.371-13.57-7.026-3.85-14.108-7.58-21.215-11.275-6.537-3.409-13.014-6.92-19.476-10.468C188.15 25.218 188.15 25.218 176 21Zm299.688 3.125-4.375 2.203-2.516 1.268a2662.272 2662.272 0 0 1-9.422 4.7c-11.13 5.539-22.24 11.101-33.214 16.946-7.778 4.124-15.666 8.023-23.548 11.942A798.349 798.349 0 0 0 383.5 71c-8.44 4.493-16.98 8.774-25.553 13.008-6.676 3.31-13.286 6.73-19.877 10.209l-2.652 1.398L329 99c-.06 31.556.07 63.105.404 94.659l.101 9.829c.27 26.338.563 52.676.995 79.012l.054 3.506c.174 11.03.35 22.01 1.446 32.994 3.344-1.258 6.318-2.685 9.344-4.582l2.493-1.554 2.663-1.676 5.707-3.563 2.932-1.836c4.34-2.714 8.694-5.408 13.048-8.101l2.594-1.606c10.283-6.365 20.586-12.698 30.888-19.034C407.114 273.7 412.557 270.35 418 267a64216.37 64216.37 0 0 1 19.676-12.105c11.258-6.924 22.51-13.856 33.741-20.823l2.415-1.498 2.085-1.294C478 230 478 230 480.593 228.931c2.793-1.804 2.793-1.804 3.022-5.517.021-1.532.014-3.064-.014-4.595l.013-2.557c.008-2.838-.02-5.675-.046-8.513-.002-2.03-.001-4.06.002-6.09.001-5.52-.028-11.04-.063-16.56-.031-5.766-.034-11.532-.04-17.297-.016-10.923-.057-21.845-.107-32.767-.056-12.433-.083-24.865-.108-37.298-.053-25.58-.14-51.158-.252-76.737-2.431 0-5.144 2.027-7.313 3.125Z" fill="#E61424"/><path d="m368 114 26.875-.188 8.425-.082c2.23-.009 4.462-.017 6.692-.023l3.444-.046c10.634-.004 20.526 1.93 28.564 9.339 7.546 10.32 8.172 19.479 7 32-1.042 3.949-2.503 6.79-5 10l-1.469 1.969c-5.09 5.888-12.216 9.459-19.931 10.29-6.616.36-13.23.198-19.85.054-2.017-.026-4.034-.048-6.05-.069-4.902-.05-9.799-.148-14.7-.244v22c-6 1-6 1-14 1v-86Z" fill="#3A2588"/><path d="M56 113h20a5413.038 5413.038 0 0 1 6.648 13.792c3.289 6.876 6.387 13.786 9.23 20.856.894 2.494.894 2.494 3.122 3.352l.835-2.188c1.124-2.714 2.396-5.224 3.81-7.796l1.552-2.836 1.615-2.93 1.58-2.883c1.532-2.791 3.07-5.58 4.608-8.367l1.466-2.674 1.358-2.467 1.202-2.188C114 115 114 115 115 114h19v85c-6 1-6 1-15 1l-1-60-10.559 17.439C103.048 164.683 98.588 171.876 94 179c-2.754-1.377-3.264-3.053-4.695-5.77l-1.607-3.018L86 167c-1.141-2.11-2.284-4.217-3.43-6.324l-3.445-6.363-1.797-3.319L73 143a381724.244 381724.244 0 0 0-.781 44.336l-.067 3.747-.06 3.458-.054 3.055A278.998 278.998 0 0 0 72 202v3l-16 1v-3l3-1-3-2c-.286-2.811-.378-5.401-.34-8.213l-.002-2.573c.002-2.814.026-5.627.049-8.44a3643.402 3643.402 0 0 1 .087-21.24c.03-5.236.044-10.471.06-15.706.032-10.276.084-20.552.146-30.828Z" fill="#392487"/><path d="M210 115h84v12h-35v72l-14 1v-73h-35v-12Z" fill="#352085"/><path d="m383 127 17-.125 5.316-.055c1.416-.006 2.831-.011 4.247-.015l2.166-.031c6.226-.002 12.124.46 17.084 4.538 5.335 6.556 6.024 11.35 5.187 19.688-1.513 4.236-3.38 7.309-7 10-8.806 4.031-18.186 3.34-27.625 3.188L383 164v-37Z" fill="#FDFDFD"/><path d="M209 114h86v14h-35l.035 15.574.014 9.776c.006 5.17.013 10.34.026 15.511.011 4.17.017 8.338.02 12.508.002 1.59.005 3.179.01 4.768.008 2.229.009 4.457.009 6.686l.006 3.842c-.105 2.916-.44 5.506-1.12 8.335l-4 1 4 1v2c-5.244 1.748-9.473 2.194-15 2l.563-1.75c.477-2.457.194-3.894-.563-6.25l3-1-3-2c-.36-2.974-.36-2.974-.34-6.836l-.002-2.13c.002-2.326.026-4.653.049-6.98a2490.707 2490.707 0 0 1 .087-17.568c.036-5.09.05-10.182.067-15.273.03-7.738.087-15.475.139-23.213h-35v-14Zm1 1v12h35v73l14-1v-72h35v-12h-84Z" fill="#9489BE"/><path d="M259 128h1c.023 9.301.04 18.603.052 27.904.005 4.319.012 8.638.023 12.957.011 4.17.017 8.338.02 12.508.002 1.59.005 3.179.01 4.768.008 2.229.009 4.457.009 6.686l.006 3.842c-.105 2.916-.44 5.506-1.12 8.335l-4 1 4 1v2c-5.244 1.748-9.473 2.194-15 2l.563-1.75c.477-2.457.194-3.894-.563-6.25l3-1-2-2 14-1v-71Z" fill="#C4BEDB"/><path d="m71 207 1 3-5 1 5 2v9H56c-.134-9.107-.134-9.107 1-13 9.41-2.296 9.41-2.296 14-2Z" fill="#422F8D"/><path d="M382 207v3l-4 1 5 2v8h-16v-8l8-1-7-1v-2c9.41-2.296 9.41-2.296 14-2Z" fill="#3A2688"/><path d="M71 140c2 2 2 2 2.203 4.429l-.068 3.09-.06 3.5c-.05 1.877-.05 1.877-.098 3.793l-.076 3.879c-.067 3.405-.146 6.81-.227 10.216-.081 3.466-.15 6.932-.22 10.398a6447.17 6447.17 0 0 1-.403 18.266A209.26 209.26 0 0 0 72 202v3l-16 1v-3l3-1-2-2 14-1v-59Z" fill="#A49BC8"/><path d="M382 177h38v1h-37v27l-16 1v-3l3-1-2-2 14-1v-22Z" fill="#B0A8CF"/><path d="M135 213v9h-16v-8a98.44 98.44 0 0 1 16-1Z" fill="#45328E"/><path d="M259 213v8h-14v-7c4.724-.652 9.22-1.12 14-1Z" fill="#3B2789"/><path d="M259 202v3l-4 1 4 1v2c-5.244 1.748-9.473 2.194-15 2l1-7c4.842-1.336 8.934-2.253 14-2Z" fill="#9B91C2"/><path d="M382 207v3l-4 1 3 2c-4.41 1.102-8.484 1.077-13 1v6h14v-7h1v8h-16v-8l8-1-7-1v-2c9.41-2.296 9.41-2.296 14-2Z" fill="#8F84BB"/><path d="m71 207 1 3-5 1 3 2c-4.41 1.102-8.484 1.077-13 1v8h-1a535.423 535.423 0 0 1-.063-4.25l-.035-2.39c.094-2.267.466-4.189 1.098-6.36 9.41-2.296 9.41-2.296 14-2Z" fill="#C9C4DE"/><path d="M135 202v3l-16 1v-3a98.44 98.44 0 0 1 16-1Z" fill="#7061A8"/><path d="M134 207v3c-5.08.847-9.848 1.09-15 1v-2c1.561-.34 3.124-.671 4.688-1l2.636-.563c2.613-.427 5.034-.513 7.676-.437Z" fill="#6859A3"/><path d="M245 200c9.41-.185 9.41-.185 14 1v1c-9.41 2.296-9.41 2.296-14 2l-1 2v-3l3-1-2-2Z" fill="#D4CFE5"/><path d="m133 199 1 3c-1.747.25-3.498.474-5.25.688-1.462.19-1.462.19-2.953.386-3.28-.087-4.43-.882-6.797-3.074 9.41-1.148 9.41-1.148 14-1Z" fill="#E2DFED"/><path d="m71 207 1 3-2.875-.063c-3.032-.163-3.032-.163-5.125 1.063-2.333.04-4.667.043-7 0v-2c9.41-2.296 9.41-2.296 14-2Z" fill="#62519F"/><path d="M378 206c-1.063 1.5-1.063 1.5-3 3-3.688.188-3.688.188-7 0l-1 2 1-5c3.663-.75 6.424-1.238 10 0Z" fill="#E3E0EE"/><path d="m130 206-1 2c-3.473 1.158-6.36 1.069-10 1v-3c7.429-1.286 7.429-1.286 11 0Z" fill="#E8E6F1"/><path d="M259 202v2c-4.842 1.336-8.934 2.253-14 2v-2c4.842-1.336 8.934-2.253 14-2Z" fill="#544297"/><path d="M133 213c-4.763.953-9.167 1.083-14 1 2-3 2-3 4.938-3.75 4.046-.33 5.69.502 9.062 2.75Z" fill="#DDDAEA"/><path d="M382 203v1c-4.842 1.336-8.934 2.253-14 2v-2c4.672-1.206 9.215-1.094 14-1Z" fill="#493791"/><path d="M71 203v1c-8.429 2.286-8.429 2.286-13 2l-1-2c4.672-1.206 9.215-1.094 14-1Z" fill="#483590"/><path d="m259 204-4 2 4 2h-6v-2l-2-1c2.709-1.354 5.01-1.065 8-1Z" fill="#B8B1D4"/></svg>